<svg width="2063" height="1565" viewBox="0 0 2063 1565" fill="none" xmlns="http://www.w3.org/2000/svg">
<circle cx="577" cy="1322" r="168" stroke="white" stroke-width="150"/>
<circle cx="1335" cy="1322" r="168" stroke="white" stroke-width="150"/>
<path d="M1418.9 277.465H75L410.974 1017H1418.9L1754.87 75.7732H1956.46H2023.65" stroke="white" stroke-width="150" stroke-linejoin="round"/>
<path d="M1422.15 351.374C1420.9 352.173 1418.13 352.04 1416.91 351.874L1387 203H1472C1455.91 252.125 1423.41 350.575 1422.15 351.374Z" fill="white" stroke="white"/>
<path d="M2036.91 9.53575C2029.08 0.338174 2019.29 0.371498 2015.37 1.53786C2014.07 51.1915 2012.53 150.399 2016.84 149.999C2022.23 149.499 2033 150.999 2041.81 136.502C2050.62 122.006 2063.35 90.5145 2061.88 71.0196C2060.41 51.5247 2046.71 21.0327 2036.91 9.53575Z" fill="white" stroke="white"/>
</svg>
