<svg width="158" height="150" viewBox="0 0 158 150" fill="none" xmlns="http://www.w3.org/2000/svg">
<path d="M140.16 53.1395L156.79 36.5167C157.476 35.8325 157.798 34.8644 157.661 33.906C157.525 32.9475 156.944 32.1082 156.095 31.6416L136.102 20.6683C134.611 19.8506 132.739 20.3953 131.92 21.8853C131.102 23.3765 131.645 25.2476 133.137 26.0654L149.533 35.064L135.261 49.3287L83.928 21.1542L98.1992 6.88953L112.626 14.8083C114.116 15.626 115.989 15.0825 116.808 13.5913C117.627 12.1014 117.082 10.229 115.59 9.41127L99.1376 0.380131C97.937 -0.278865 96.4451 -0.0660144 95.4778 0.902037L78.8462 17.5261L62.2145 0.902037C61.246 -0.0660144 59.7541 -0.277663 58.5547 0.380131L1.59746 31.6416C0.748074 32.1082 0.166976 32.9463 0.0310254 33.906C-0.106128 34.8644 0.216303 35.8325 0.902071 36.5167L17.5325 53.1395L0.902071 69.7612C0.216303 70.4466 -0.106128 71.4135 0.0310254 72.3731C0.166976 73.3315 0.748074 74.1709 1.59746 74.6363L18.809 84.0835V115.66C18.809 116.784 19.4214 117.819 20.4067 118.36L77.3639 149.62C77.8259 149.874 78.336 150 78.8462 150C79.3563 150 79.8664 149.874 80.3284 149.62L137.286 118.36C138.271 117.819 138.883 116.784 138.883 115.66V84.0835L156.095 74.6375C156.944 74.1709 157.525 73.3315 157.661 72.3731C157.798 71.4147 157.476 70.4466 156.79 69.7624L140.16 53.1395ZM78.8462 80.8871L28.2882 53.1383L78.8462 25.3883L129.404 53.1383L78.8462 80.8871ZM59.4943 6.88953L73.7643 21.1542L22.4316 49.3287L8.16038 35.064L59.4943 6.88953ZM22.434 56.9492L73.7667 85.1237L59.4943 99.3895L8.16038 71.215L22.434 56.9492ZM132.723 113.839L81.9261 141.719V110.25C81.9261 108.549 80.5473 107.171 78.8462 107.171C77.145 107.171 75.7662 108.549 75.7662 110.25V141.719L24.9689 113.839V87.4651L58.5547 105.899C59.0203 106.154 59.5304 106.279 60.0357 106.279C60.8333 106.279 61.6226 105.969 62.2145 105.377L78.8462 88.753L95.4778 105.377C96.0697 105.97 96.859 106.279 97.6566 106.279C98.1619 106.279 98.672 106.154 99.1376 105.899L132.723 87.4651V113.839ZM98.1992 99.3895L83.9268 85.1225L135.26 56.9492L149.533 71.2138L98.1992 99.3895Z" fill="#486B6D"/>
<path d="M124.615 20.7693C125.424 20.7693 126.215 20.44 126.79 19.8667C127.363 19.2946 127.692 18.5013 127.692 17.6924C127.692 16.8823 127.363 16.089 126.79 15.5169C126.218 14.9436 125.424 14.6155 124.615 14.6155C123.803 14.6155 123.012 14.9436 122.44 15.5169C121.864 16.089 121.538 16.8823 121.538 17.6924C121.538 18.5013 121.864 19.2946 122.44 19.8667C123.012 20.44 123.806 20.7693 124.615 20.7693Z" fill="#486B6D"/>
<path d="M78.8463 96.9231C77.9363 96.9231 77.0425 97.2512 76.3989 97.8245C75.7553 98.3991 75.3848 99.1899 75.3848 100C75.3848 100.811 75.7553 101.602 76.3989 102.178C77.0425 102.75 77.9363 103.077 78.8463 103.077C79.7563 103.077 80.6501 102.75 81.2937 102.178C81.9374 101.602 82.3078 100.811 82.3078 100C82.3078 99.1899 81.9374 98.3991 81.2937 97.8245C80.6501 97.2512 79.7563 96.9231 78.8463 96.9231Z" fill="#486B6D"/>
</svg>
