<svg width="590" height="524" viewBox="0 0 590 524" fill="none" xmlns="http://www.w3.org/2000/svg">
<path d="M49.0437 308.381L0.621733 95.5062C-2.87422 80.1362 8.81824 65.5 24.5936 65.5H426.922L436.311 19.6398C438.651 8.20899 448.718 0 460.396 0H565.417C578.994 0 590 10.9968 590 24.5625V40.9375C590 54.5032 578.994 65.5 565.417 65.5H493.835L421.88 416.984C439.094 426.876 450.694 445.423 450.694 466.688C450.694 498.34 425.013 524 393.333 524C361.654 524 335.972 498.34 335.972 466.688C335.972 450.646 342.576 436.153 353.205 425.75H138.463C149.091 436.153 155.694 450.646 155.694 466.688C155.694 498.34 130.013 524 98.3333 524C66.6536 524 40.9722 498.34 40.9722 466.688C40.9722 443.996 54.1735 424.387 73.3188 415.101L67.6677 390.256C64.1717 374.886 75.8641 360.25 91.6395 360.25H366.582L373.286 327.5H73.0155C61.5372 327.5 51.5871 319.564 49.0437 308.381Z" fill="white"/>
</svg>
