<svg width="590" height="524" viewBox="0 0 590 524" fill="none" xmlns="http://www.w3.org/2000/svg">
<path d="M61.2324 305.609L61.2325 305.609C62.4801 311.095 67.3655 315 73.0156 315H373.286H388.604L385.532 330.007L378.828 362.757L376.782 372.75H366.582H91.6395C83.8735 372.75 78.1426 379.949 79.8564 387.484L85.5074 412.329L87.7103 422.014L78.7737 426.348C63.7673 433.626 53.4722 448.971 53.4722 466.688C53.4722 491.427 73.5472 511.5 98.3333 511.5C123.119 511.5 143.194 491.427 143.194 466.688C143.194 454.152 138.05 442.838 129.719 434.683L107.822 413.25H138.463H353.205H383.847L361.949 434.683C353.617 442.838 348.472 454.152 348.472 466.688C348.472 491.427 368.547 511.5 393.333 511.5C418.119 511.5 438.194 491.427 438.194 466.688C438.194 450.089 429.155 435.581 415.652 427.822L407.823 423.324L409.634 414.477L481.589 62.993L483.635 53H493.835H565.417C572.1 53 577.5 47.5896 577.5 40.9375V24.5625C577.5 17.9104 572.1 12.5 565.417 12.5H460.396C454.647 12.5 449.705 16.54 448.557 22.1462L448.557 22.1468L439.168 68.0071L437.123 78H426.922H24.5936C16.8276 78 11.0966 85.1992 12.8104 92.7337L61.2324 305.609Z" fill="white" stroke="white" stroke-width="25"/>
</svg>
