<svg width="95" height="128" viewBox="0 0 95 128" fill="none" xmlns="http://www.w3.org/2000/svg">
<path d="M26 18.5C26.6667 13 30.4 2 40 2C49.6 2 54.3333 2 55.5 2C59.8333 2.16667 68.5 5.7 68.5 18.5M26 18.5C27 21.8333 30.7 28.2 37.5 27M26 18.5C24.0518 19.0245 21.0459 20.755 18 24.2457M18 110V24.2457M18 110C18.5674 110.82 19.7214 111.963 21.5 113.091M18 110L15.5806 115M77 25.5V107.5C76.9135 107.904 76.7867 108.294 76.6241 108.671M68.5 18.5C73.3333 21.1667 83.3 29 84.5 39C86.5427 41.1998 90.7778 59.6059 92.2614 115M68.5 18.5C67.6667 21.3333 64.1 27 56.5 27M76.6241 108.671C75.8705 110.421 74.3495 111.891 72.5236 113.091M76.6241 108.671L79.3979 115M18 24.2457C14.2708 28.5195 10.4815 35.4318 8.5 46C6.61925 52.1124 2.88148 74.1423 2.10979 115M47.75 85.5H58C58 96.3 65 99.6667 68.5 100V108H47.75M47.75 85.5H37.5C37.5 90.3333 35.2 100 26 100V108H47.75M47.75 85.5V108M21.5 113.091C24.4234 114.944 29.0339 116.751 35.5 117H62.5C65.073 116.505 69.2794 115.223 72.5236 113.091M21.5 113.091V125.5H72.5L72.5236 113.091M79.3979 115L84 125.5H92.5C92.4313 121.861 92.3514 118.362 92.2614 115M79.3979 115H92.2614M15.5806 115L10.5 125.5H2V123C2.02385 120.257 2.06086 117.591 2.10979 115M15.5806 115H2.10979M40 12C38.6667 12.1667 36.3 13 37.5 15C38.7 17 41.3333 20.8333 42.5 22.5H51.5L57.5 16C58.1667 14.6667 58.7 12 55.5 12C52.3 12 43.8333 12 40 12Z" stroke="white" stroke-width="4" stroke-linejoin="round"/>
<rect x="51.5" y="30.5" width="5" height="20" rx="2" fill="white"/>
<rect x="38.5" y="30.5" width="5" height="20" rx="2" fill="white"/>
</svg>
