<svg width="121" height="94" viewBox="0 0 121 94" fill="none" xmlns="http://www.w3.org/2000/svg">
<path d="M20.4238 28.9878H6.53857V36.0721H20.4238V28.9878Z" fill="white"/>
<path d="M20.4238 57.325H6.53857V64.4093H20.4238V57.325Z" fill="white"/>
<path d="M20.424 43.1564H0V50.2407H20.424V43.1564Z" fill="white"/>
<path d="M74.2063 0C48.4568 0 27.5078 20.949 27.5078 46.6985C27.5078 72.4481 48.4566 93.397 74.2063 93.397C99.9561 93.397 120.905 72.4481 120.905 46.6985C120.905 20.949 99.9561 0 74.2063 0ZM74.2063 86.3127C52.3631 86.3127 34.5921 68.5418 34.5921 46.6985C34.5921 24.8553 52.3631 7.0843 74.2063 7.0843C96.0498 7.0843 113.821 24.8553 113.821 46.6985C113.821 68.5418 96.0498 86.3127 74.2063 86.3127Z" fill="white"/>
<path d="M76.494 48.4587V25.5771H69.4097V52.2037L87.6654 64.6445L91.6551 58.7902L76.494 48.4587Z" fill="white"/>
</svg>
