<svg width="103" height="126" viewBox="0 0 103 126" fill="none" xmlns="http://www.w3.org/2000/svg">
<path d="M14.9866 10.5L29.4866 2C30.2546 3.40799 30.9643 4.91137 31.6192 6.5M14.9866 10.5C9.65323 19.3333 -0.31344 52.6 2.48656 115H3.98633M14.9866 10.5C16.9865 12.3333 20.9863 16.6 20.9863 19C18.9863 32.8333 15.9863 68.8 19.9863 102M19.9863 102C17.9863 103.2 16.153 111.167 15.4863 115H14.4863M19.9863 102C20.153 106.5 21.3863 115.6 24.9863 116H25.9863M75.9863 116C77.9863 115.5 81.9863 112 81.9863 102M75.9863 116H25.9863M75.9863 116V123.5H25.9863V116M81.9863 102C83.653 105.333 86.9863 112.6 86.9863 115H87.9863M81.9863 102C85.1863 70 82.9863 33.3333 81.4863 19C79.8863 15.8 84.4863 12 86.9863 10.5M86.9863 10.5C101.786 43.7 101.153 94 98.9863 115H97.9863M86.9863 10.5L72.4865 2C71.9223 3.21396 71.3265 4.71558 70.7223 6.5M70.7223 6.5C65.4372 22.1097 59.5124 59.3604 68.4865 115H32.9866C37.5621 89.7556 43.243 34.6982 31.6192 6.5M70.7223 6.5H31.6192M3.98633 115V123.5H14.4863V115M3.98633 115H14.4863M87.9863 115V123.5H97.9863V115M87.9863 115H97.9863" stroke="white" stroke-width="4" stroke-linejoin="round"/>
</svg>
