<svg width="56" height="128" viewBox="0 0 56 128" fill="none" xmlns="http://www.w3.org/2000/svg">
<path d="M53.0292 16.5C53.0292 13.683 53.0292 10.9658 53.0292 8.375M53.0292 16.5H42.5293M53.0292 16.5C53.0292 21.2583 53.0292 26.3012 53.0292 31.5M2.02922 16.5V9.25V8.375M2.02922 16.5H12.5293M2.02922 16.5V31.5M2.02922 8.375V7.5V2H53.0292C53.0292 4.02063 53.0292 6.15126 53.0292 8.375M2.02922 8.375H53.0292M12.5293 16.5C13.1959 21 12.0292 30.3 2.02922 31.5M12.5293 16.5H27.5293M2.02922 31.5V63.5M42.5293 16.5C41.8626 21.5 43.0292 31.5 53.0292 31.5M42.5293 16.5H27.5293M53.0292 31.5C53.0292 70.2609 53.0292 117.691 53.0292 120.5C53.0292 124.1 49.6959 125.333 48.0293 125.5C46.0293 125.5 41.2293 125.5 38.0293 125.5C34.8293 125.5 34.0293 122.167 34.0293 120.5C33.3626 98.1667 32.0293 52.5 32.0293 48.5C32.0293 44.8691 29.2827 44.2594 27.5293 44.4271M27.5293 16.5V44.4271M27.5293 44.4271C27.3511 44.4442 27.1831 44.4692 27.0293 44.5C24.6293 44.5 23.3626 47.1667 23.0293 48.5C22.3626 70.8333 21.0293 116.5 21.0293 120.5C21.0293 124.5 18.3626 125.5 17.0293 125.5C14.5293 125.5 8.72922 125.5 5.52922 125.5C2.32922 125.5 1.86255 122.167 2.02922 120.5V72M2.02922 63.5H12.5293M2.02922 63.5V72M2.02922 72H8.0293" stroke="white" stroke-width="4" stroke-linejoin="round"/>
</svg>
