<svg width="97" height="96" viewBox="0 0 97 96" fill="none" xmlns="http://www.w3.org/2000/svg">
<path d="M80.0448 50.2993C79.2652 50.2993 78.6332 50.9313 78.6332 51.7109C78.6332 52.6993 77.8291 53.5033 76.8407 53.5033C75.8526 53.5033 75.0483 52.6993 75.0483 51.7109C75.0483 50.9311 74.4163 50.2993 73.6367 50.2993C72.8571 50.2993 72.2251 50.9313 72.2251 51.7109C72.2251 54.256 74.2958 56.3266 76.8407 56.3266C79.3857 56.3266 81.4564 54.2559 81.4564 51.7109C81.4564 50.931 80.8244 50.2993 80.0448 50.2993Z" fill="white"/>
<path d="M93.2951 50.53L89.3218 49.2572C88.813 49.0941 88.4119 48.6879 88.2492 48.1705C87.4118 45.5082 86.1481 43.0087 84.4932 40.7413C83.739 39.7079 82.9003 38.721 81.9841 37.7815C82.5703 35.2101 82.889 32.2999 82.8477 29.7856C82.7886 26.1889 82.0698 24.0793 80.6504 23.3359C79.8859 22.935 77.5595 21.7172 64.9671 27.4815C64.6689 27.6179 64.3904 27.786 64.1325 27.9784C63.2836 27.7503 62.4159 27.5393 61.5429 27.3498C61.4378 27.3269 61.3294 27.3066 61.2235 27.2843C62.2439 25.0552 62.8397 22.6342 62.9517 20.1349C62.9865 19.3559 62.3835 18.6962 61.6045 18.6615C60.8275 18.6229 60.1658 19.2295 60.1311 20.0085C59.9471 24.118 58.2424 27.9845 55.3313 30.8958C53.5919 32.6352 51.5553 33.8987 49.3847 34.6944C45.6205 34.1662 41.7863 34.1662 38.0221 34.6944C35.8514 33.8987 33.8149 32.6352 32.0756 30.8958C28.9697 27.7899 27.2591 23.6604 27.2591 19.268C27.2591 14.8753 28.9697 10.746 32.0756 7.64008C35.1814 4.53399 39.3111 2.82342 43.7034 2.82342C48.0957 2.82342 52.2254 4.53399 55.3313 7.64008C56.5794 8.88819 57.6108 10.3125 58.3968 11.873C58.7475 12.5695 59.5965 12.8498 60.2927 12.499C60.9891 12.1485 61.2693 11.2996 60.9187 10.6033C59.9973 8.77339 58.7892 7.10487 57.3279 5.64343C53.6887 2.00422 48.8501 0 43.7036 0C38.5571 0 33.7185 2.00422 30.0793 5.64343C26.4401 9.28282 24.4359 14.1213 24.4359 19.2678C24.4359 24.4143 26.4401 29.2529 30.0793 32.8921C31.129 33.9419 32.2711 34.8446 33.479 35.6009C33.4794 35.6009 33.4798 35.6007 33.4802 35.6007C32.6024 35.8288 31.7313 36.0849 30.8699 36.3729C30.1304 36.6202 29.7314 37.4198 29.9787 38.1595C30.2257 38.8989 31.0258 39.2979 31.765 39.0508C39.4637 36.4771 47.9436 36.4771 55.6422 39.0508C55.7907 39.1005 55.9415 39.124 56.0899 39.124C56.6804 39.124 57.2309 38.7504 57.4285 38.1595C57.6758 37.42 57.2768 36.6202 56.5374 36.3729C55.6759 36.0849 54.8048 35.8286 53.9271 35.6007C53.9275 35.6007 53.9278 35.6009 53.9282 35.6009C55.1364 34.8446 56.2782 33.9419 57.3279 32.8921C58.2566 31.9634 59.0764 30.9493 59.7882 29.8715C60.1773 29.947 60.5636 30.0262 60.9442 30.1088C61.4512 30.2189 61.9559 30.3371 62.4561 30.4612C62.4403 30.5226 62.4242 30.5838 62.4112 30.6461C61.7227 33.9132 61.7674 36.8028 62.544 39.234C63.2419 41.4194 64.5016 43.1898 66.2876 44.4965C68.3926 46.0364 70.9339 46.7015 73.2359 46.7015C74.9685 46.7015 76.5658 46.3245 77.7389 45.6601C79.0658 44.9085 80.1775 43.3249 81.0575 40.9473C81.4643 41.422 81.8498 41.9084 82.2132 42.4062C83.6866 44.4247 84.8113 46.6492 85.5563 49.0178C85.9937 50.4089 87.0797 51.5036 88.461 51.9463L92.4342 53.2191C93.4767 53.5531 94.1771 54.5127 94.1771 55.6073V62.1956C94.1771 63.2902 93.4767 64.2498 92.4342 64.5838L86.0327 66.6343C85.0086 66.9626 84.1418 67.6664 83.5922 68.6163C81.0772 72.9628 77.1231 76.5595 71.8391 79.3068C71.2287 79.6245 70.8058 80.1927 70.6785 80.866L68.6283 91.7222C68.5716 92.0214 68.3096 92.2383 68.0051 92.2383H61.3389C61.0344 92.2383 60.7724 92.0212 60.7157 91.7222L59.5802 85.7224C59.3566 84.5419 58.2494 83.7578 57.0578 83.9383C54.1862 84.3726 51.2274 84.5925 48.2638 84.5925C46.0589 84.5925 43.8823 84.4696 41.7939 84.2269C40.6392 84.0941 39.5635 84.8813 39.3477 86.0214L38.2686 91.7222C38.2119 92.0214 37.9499 92.2383 37.6455 92.2383H30.9792C30.6747 92.2383 30.4127 92.0212 30.3553 91.7177L28.3812 81.4641C28.2541 80.8035 27.8392 80.2417 27.2422 79.9229C18.2349 75.1144 13.4739 67.0808 13.4739 56.6912C13.4739 51.4418 14.6224 46.8 16.8873 42.8943C19.0008 39.2494 22.0878 36.2358 26.0623 33.9367C26.7371 33.5463 26.9677 32.6827 26.5774 32.0077C26.1872 31.3329 25.3236 31.1027 24.6486 31.4926C16.9418 35.9508 12.2936 42.8287 11.0139 51.5644V51.5642C10.878 51.5519 10.742 51.5402 10.6065 51.5261C10.6312 50.5836 10.4607 49.6326 10.0893 48.7095C9.27032 46.6737 7.58798 45.2043 5.80314 44.9661C4.39664 44.7778 3.05815 45.375 2.12926 46.6022C0.782441 48.382 1.00202 49.7904 1.42317 50.6584C2.13419 52.1235 3.96184 53.1598 6.9948 53.8113C6.91144 53.9362 6.81974 54.0616 6.71933 54.1876C4.9273 56.4351 2.81603 56.932 1.44515 56.9788C0.642625 57.0059 0 57.6502 0 58.4533V58.4601C0 59.2522 0.625006 59.8983 1.41635 59.9344C1.51771 59.9392 1.62361 59.9416 1.73388 59.9416C3.46851 59.9416 6.25252 59.3019 8.92722 55.948C9.34951 55.4186 9.69356 54.8601 9.95804 54.2831C10.2244 54.3132 10.4804 54.3389 10.7255 54.3617C10.7255 54.3611 10.7255 54.3607 10.7257 54.3602C10.6776 55.1252 10.6509 55.9014 10.6509 56.6912C10.6509 62.5696 12.0523 67.8108 14.8158 72.2699C17.3639 76.3811 21.0122 79.7473 25.6629 82.2787L27.5821 92.247C27.8907 93.8778 29.3194 95.0615 30.9792 95.0615H37.6455C39.3053 95.0615 40.7339 93.8778 41.0426 92.247L42.0182 87.0924C44.0446 87.307 46.1426 87.4158 48.2636 87.4158C51.1736 87.4158 54.0802 87.213 56.9129 86.8129L57.9414 92.2474C58.2502 93.8782 59.6789 95.0617 61.3385 95.0617H68.0048C69.6646 95.0617 71.0932 93.878 71.402 92.2466L73.3983 81.6768C79.0379 78.6947 83.2889 74.7772 86.0356 70.0302C86.2336 69.6881 86.5384 69.437 86.8938 69.3232L93.2951 67.2727C95.5111 66.5625 97 64.5222 97 62.1952V55.607C97 53.2801 95.5111 51.2399 93.2951 50.53ZM79.8124 33.7526C79.2691 38.3991 77.8116 42.3738 76.3471 43.2033C74.6826 44.1462 70.8396 44.3282 67.9542 42.2175C65.0654 40.1044 64.1039 36.3043 65.1734 31.2281C65.1734 31.2279 65.1734 31.2279 65.1734 31.2279C65.2808 30.7181 65.643 30.2771 66.1423 30.0486C73.2096 26.8135 77.2842 25.7554 78.7979 25.7554C79.0264 25.7554 79.1965 25.7795 79.3098 25.8238C79.7645 26.3084 80.3609 29.0632 79.8124 33.7526ZM3.96355 49.4257C3.81748 49.1244 4.16229 48.5949 4.38091 48.3058C4.72742 47.8481 5.04665 47.7545 5.28783 47.7545C5.33879 47.7545 5.38634 47.7587 5.42992 47.7645C6.07898 47.8511 6.98836 48.5654 7.47014 49.7629C7.58362 50.0448 7.73101 50.5118 7.76549 51.0942C5.81128 50.6893 4.29301 50.1056 3.96355 49.4257Z" fill="white"/>
<path d="M45.0741 17.6498V12.5983C46.8162 12.7227 47.4633 13.519 48.0605 13.519C48.8071 13.519 49.1555 12.5734 49.1555 12.1006C49.1555 10.8811 46.7663 10.3586 45.0741 10.3087V9.63655C45.0741 9.33797 44.7007 9.06421 44.3275 9.06421C43.9043 9.06421 43.6057 9.33797 43.6057 9.63655V10.3582C41.2415 10.6071 38.8773 11.8514 38.8773 14.9871C38.8773 18.1725 41.366 19.0685 43.6057 19.8647V25.713C41.0672 25.5139 40.3954 23.7718 39.5741 23.7718C38.952 23.7718 38.4294 24.5931 38.4294 25.1905C38.4294 26.4098 40.5199 28.0772 43.6057 28.127V28.8984C43.6057 29.197 43.9044 29.4708 44.3275 29.4708C44.7009 29.4708 45.0741 29.197 45.0741 28.8984V28.0523C47.7619 27.6789 49.6034 25.9867 49.6034 22.9257C49.6034 19.5413 47.2392 18.4461 45.0741 17.6498ZM43.755 17.1772C42.436 16.6795 41.366 16.157 41.366 14.7385C41.366 13.4444 42.3614 12.8222 43.755 12.6481V17.1772V17.1772ZM44.9247 25.6631V20.4123C46.144 20.9348 47.1145 21.6316 47.1145 23.1993C47.1145 24.6181 46.2684 25.4144 44.9247 25.6631Z" fill="white"/>
</svg>
