<svg width="85" height="99" viewBox="0 0 85 99" fill="none" xmlns="http://www.w3.org/2000/svg">
<path d="M83.9042 26.7651L83.9012 26.6883C83.8583 25.7408 83.8297 24.7383 83.8124 23.623C83.7318 18.1839 79.4081 13.6848 73.9683 13.3808C62.6265 12.7478 53.8527 9.04952 46.3559 1.74247L46.292 1.68151C43.8468 -0.560503 40.1582 -0.560503 37.7123 1.68151L37.6483 1.74247C30.1516 9.04952 21.3777 12.7478 10.036 13.3815C4.59688 13.6848 0.272408 18.1839 0.191879 23.6237C0.175322 24.7316 0.14597 25.734 0.103072 26.6883L0.0985563 26.8667C-0.121957 38.432 -0.395905 52.8256 4.41926 65.89C7.06693 73.0744 11.0768 79.3195 16.3368 84.4531C22.3275 90.2993 30.1742 94.9406 39.6585 98.2476C39.9671 98.3552 40.2877 98.4425 40.6143 98.508C41.0749 98.5998 41.5385 98.6457 42.0021 98.6457C42.4657 98.6457 42.9301 98.5998 43.3899 98.508C43.7166 98.4425 44.0394 98.3544 44.3495 98.2461C53.8225 94.9331 61.6609 90.2895 67.6464 84.444C72.9041 79.309 76.914 73.0624 79.5639 65.8765C84.3971 52.7729 84.1239 38.3522 83.9042 26.7651ZM74.1331 63.8738C69.0545 77.6435 58.6874 87.1 42.4394 92.7821C42.3814 92.8017 42.3197 92.819 42.2558 92.8318C42.0879 92.8649 41.9171 92.8649 41.747 92.8311C41.6838 92.8183 41.6221 92.8017 41.5649 92.7821C25.2996 87.1105 14.9256 77.6593 9.85082 63.8889C5.4127 51.8464 5.66407 38.6337 5.88609 26.9773L5.8876 26.9126C5.93275 25.9109 5.96286 24.8618 5.97942 23.7088C6.01554 21.2937 7.9392 19.2955 10.3588 19.1608C16.777 18.8025 22.4156 17.5622 27.5965 15.3691C32.7707 13.1791 37.3661 10.0919 41.6439 5.93147C41.8614 5.74784 42.1436 5.74708 42.3604 5.93147C46.6389 10.0919 51.2343 13.1791 56.4077 15.3691C61.5887 17.5622 67.2272 18.8025 73.6462 19.1608C76.0658 19.2955 77.9895 21.2937 78.0248 23.7095C78.0421 24.8685 78.0722 25.9177 78.1174 26.9126C78.3387 38.5825 78.584 51.8058 74.1331 63.8738Z" fill="white"/>
<path d="M83.9042 26.7651L83.9012 26.6883C83.8583 25.7408 83.8297 24.7383 83.8124 23.623C83.7318 18.1839 79.4081 13.6848 73.9683 13.3808C62.6265 12.7478 53.8527 9.04952 46.3559 1.74247L46.292 1.68151C43.8468 -0.560503 40.1582 -0.560503 37.7123 1.68151L37.6483 1.74247C30.1516 9.04952 21.3777 12.7478 10.036 13.3815C4.59688 13.6848 0.272408 18.1839 0.191879 23.6237C0.175322 24.7316 0.14597 25.734 0.103072 26.6883L0.0985563 26.8667C-0.121957 38.432 -0.395905 52.8256 4.41926 65.89C7.06693 73.0744 11.0768 79.3195 16.3368 84.4531C22.3275 90.2993 30.1742 94.9406 39.6585 98.2476C39.9671 98.3552 40.2877 98.4425 40.6143 98.508C41.0749 98.5998 41.5385 98.6457 42.0021 98.6457C42.4657 98.6457 42.9301 98.5998 43.3899 98.508C43.7166 98.4425 44.0394 98.3544 44.3495 98.2461C53.8225 94.9331 61.6609 90.2895 67.6464 84.444C72.9041 79.309 76.914 73.0624 79.5639 65.8765C84.3971 52.7729 84.1239 38.3522 83.9042 26.7651ZM74.1331 63.8738C69.0545 77.6435 58.6874 87.1 42.4394 92.7821C42.3814 92.8017 42.3197 92.819 42.2558 92.8318C42.0879 92.8649 41.9171 92.8649 41.747 92.8311C41.6838 92.8183 41.6221 92.8017 41.5649 92.7821C25.2996 87.1105 14.9256 77.6593 9.85082 63.8889C5.4127 51.8464 5.66407 38.6337 5.88609 26.9773L5.8876 26.9126C5.93275 25.9109 5.96286 24.8618 5.97942 23.7088C6.01554 21.2937 7.9392 19.2955 10.3588 19.1608C16.777 18.8025 22.4156 17.5622 27.5965 15.3691C32.7707 13.1791 37.3661 10.0919 41.6439 5.93147C41.8614 5.74784 42.1436 5.74708 42.3604 5.93147C46.6389 10.0919 51.2343 13.1791 56.4077 15.3691C61.5887 17.5622 67.2272 18.8025 73.6462 19.1608C76.0658 19.2955 77.9895 21.2937 78.0248 23.7095C78.0421 24.8685 78.0722 25.9177 78.1174 26.9126C78.3387 38.5825 78.584 51.8058 74.1331 63.8738Z" fill="white"/>
<path d="M42.0009 24.7407C28.445 24.7407 17.417 35.7694 17.417 49.3246C17.417 62.8806 28.445 73.9093 42.0009 73.9093C55.5561 73.9093 66.5849 62.8806 66.5849 49.3246C66.5849 35.7694 55.5561 24.7407 42.0009 24.7407ZM42.0009 68.1203C31.6368 68.1203 23.2053 59.6888 23.2053 49.3246C23.2053 38.9605 31.6368 30.529 42.0009 30.529C52.3643 30.529 60.7958 38.9605 60.7958 49.3246C60.7958 59.6888 52.3643 68.1203 42.0009 68.1203Z" fill="white"/>
<path d="M49.0661 41.6924L37.6476 53.1109L34.5483 50.0117C33.4179 48.8813 31.5853 48.8813 30.4549 50.0117C29.3253 51.1421 29.3253 52.9747 30.4549 54.1044L35.6012 59.2507C36.1665 59.8159 36.907 60.0981 37.6476 60.0981C38.3882 60.0981 39.1287 59.8159 39.6939 59.2507L53.1596 45.7851C54.2892 44.6546 54.2892 42.822 53.1596 41.6924C52.0292 40.5612 50.1966 40.5612 49.0661 41.6924Z" fill="white"/>
</svg>
