<svg width="129" height="127" viewBox="0 0 129 127" fill="none" xmlns="http://www.w3.org/2000/svg">
<path d="M79.5878 8.5L82.272 11.5C89.0719 13.1 97.7719 18.1667 101.272 20.5L124.902 102M79.5878 8.5L73.7721 2H53.2721L47.2009 9.69016M79.5878 8.5C77.8158 12.3333 72.1719 19.8 63.772 19M63.772 19C60.2246 19.2934 51.9441 17.8423 47.2009 9.69016M63.772 19V125M47.2009 9.69016L45.7721 11.5C41.1054 13 30.6721 16.9 26.2721 20.5L3.60641 102M63.772 125C52.6004 125 41.9374 125 38.772 125C33.1719 125 31.7719 120 31.772 117.5V56L18.3265 107M63.772 125C72.3645 125 81.2579 125 87.272 125C89.9386 124.667 95.272 122.7 95.272 117.5L95.772 55L109.236 107M3.60641 102L2.77209 105C1.93875 107.167 1.07209 111.7 4.27209 112.5C7.47209 113.3 10.272 114.167 11.272 114.5C12.772 115.333 16.072 115.8 17.272 111L18.3265 107M3.60641 102L18.3265 107M124.902 102L125.772 105C126.972 109.4 124.272 111.833 122.772 112.5L115.272 114.5C112.072 114.5 110.605 112.167 110.272 111L109.236 107M124.902 102L109.236 107M72.272 33.5C76.272 33.1667 83.972 34.8 82.772 44C82.4386 40.1667 84.072 32.7 93.272 33.5" stroke="white" stroke-width="4" stroke-linejoin="round"/>
</svg>
