<svg width="127" height="128" viewBox="0 0 127 128" fill="none" xmlns="http://www.w3.org/2000/svg">
<path d="M44.5 13L51.5 29.5L59 25.5M59 25.5L64 33.5L68.5 25.5M59 25.5L51.5 7M68.5 25.5L76.5 29.5L83 13L76.5 7L68.5 25.5Z" stroke="white" stroke-width="4" stroke-linejoin="round"/>
<path d="M101 23.04C99 23.7067 95 28.14 95 40.54C95 52.94 95 102.373 95 125.54H31.5V55.54V40.54C31.1667 35.8734 29.6 25.84 26 23.04" stroke="white" stroke-width="4" stroke-linejoin="round"/>
<path d="M32 55.04L16.5 64.04L2 53.04L24 25.54C26.8333 21.8733 34.9 14.24 44.5 13.04L52 4.54002C52.6667 3.70668 54.8 2.04002 58 2.04002C61.2 2.04002 67 2.04002 69.5 2.04002C70.6667 1.87335 73.5 2.14002 75.5 4.54002C77.5 6.94002 79.6667 9.2067 80.5 10.04C81.6667 11.54 85.3 14.64 90.5 15.04C97 15.54 105 27.54 105 27.54L125 53.04L110 64.04L96 57.04" stroke="white" stroke-width="4" stroke-linejoin="round"/>
<circle cx="64" cy="51" r="2" fill="white"/>
<circle cx="64" cy="43" r="2" fill="white"/>
</svg>
