<svg width="37" height="36" viewBox="0 0 37 36" fill="none" xmlns="http://www.w3.org/2000/svg">
<rect x="2.31812" y="1.5" width="33" height="33" rx="10.5" stroke="white" stroke-width="3"/>
<path d="M25.9679 14.3067C25.9793 14.4677 25.9793 14.6288 25.9793 14.7899C25.9793 19.7028 22.2674 25.3636 15.4831 25.3636C13.393 25.3636 11.4514 24.7538 9.81812 23.6953C10.1151 23.7298 10.4006 23.7413 10.709 23.7413C12.4336 23.7413 14.0212 23.1546 15.2889 22.1536C13.6671 22.119 12.308 21.049 11.8397 19.5763C12.0681 19.6108 12.2965 19.6338 12.5364 19.6338C12.8676 19.6338 13.1989 19.5877 13.5072 19.5072C11.8169 19.162 10.5491 17.6663 10.5491 15.8599V15.8139C11.0402 16.0901 11.6113 16.2626 12.2166 16.2856C11.2229 15.6183 10.5719 14.4792 10.5719 13.1906C10.5719 12.5003 10.7546 11.8674 11.0744 11.3152C12.8904 13.5703 15.6201 15.043 18.681 15.2041C18.6239 14.928 18.5897 14.6403 18.5897 14.3527C18.5897 12.3047 20.2344 10.6364 22.2788 10.6364C23.3409 10.6364 24.3003 11.0851 24.9742 11.8099C25.8079 11.6489 26.6074 11.3382 27.3156 10.9125C27.0414 11.7754 26.459 12.5003 25.6938 12.9605C26.4362 12.88 27.1557 12.6728 27.8181 12.3852C27.3157 13.1216 26.6875 13.7774 25.9679 14.3067V14.3067Z" fill="white"/>
</svg>
