<svg width="77" height="128" viewBox="0 0 77 128" fill="none" xmlns="http://www.w3.org/2000/svg">
<path d="M2.02294 119V51.5C2.02294 46.7 3.68961 44.5 4.52295 44C8.12295 44 9.68962 40 10.0229 38V2H18.5229C19.3229 27.2 32.1896 33.1667 38.5229 33C53.3229 33 57.0229 12.3333 57.0229 2H66.0229V38C66.0229 42.4 69.6896 43.8333 71.5229 44C74.323 44.8 74.3563 49.3333 74.0229 51.5V120.5C74.0229 124.5 70.0229 125.833 68.0229 126H6.52294C2.52294 126 1.85627 121.333 2.02294 119Z" stroke="white" stroke-width="4" stroke-linejoin="round"/>
<rect x="46.0229" y="54.5" width="14" height="5" rx="1.5" fill="white"/>
</svg>
