<svg width="96" height="117" viewBox="0 0 96 117" fill="none" xmlns="http://www.w3.org/2000/svg">
<path d="M27 17.83C27.6667 12.8866 31.4 3 41 3C50.6 3 55.3333 3 56.5 3C60.8333 3.1498 69.5 6.32551 69.5 17.83M27 17.83C28 20.8259 31.7 26.5482 38.5 25.4696M27 17.83C25.0518 18.3014 22.0459 19.8567 19 22.9941M19 100.069V22.9941M19 100.069C19.5674 100.805 20.7214 101.834 22.5 102.847M19 100.069L16.5806 104.563M78 24.1215V97.8219C77.9135 98.1846 77.7867 98.5356 77.6241 98.8748M69.5 17.83C74.3333 20.2267 84.3 27.2672 85.5 36.2551C87.5427 38.2322 91.7778 54.7754 93.2614 104.563M69.5 17.83C68.6667 20.3765 65.1 25.4696 57.5 25.4696M77.6241 98.8748C76.8705 100.447 75.3495 101.768 73.5236 102.847M77.6241 98.8748L80.3979 104.563M19 22.9941C15.2708 26.8353 11.4815 33.048 9.5 42.5466C7.61925 48.0403 3.88148 67.8404 3.10979 104.563M48.75 78.0486H59C59 87.7555 66 90.7814 69.5 91.081V98.2713H48.75M48.75 78.0486H38.5C38.5 82.3927 36.2 91.081 27 91.081V98.2713H48.75M48.75 78.0486V98.2713M22.5 102.847C25.4234 104.512 30.0339 106.137 36.5 106.36H63.5C66.073 105.916 70.2794 104.763 73.5236 102.847M22.5 102.847V114H73.5L73.5236 102.847M80.3979 104.563L85 114H93.5C93.4313 110.729 93.3514 107.585 93.2614 104.563M80.3979 104.563H93.2614M16.5806 104.563L11.5 114H3V111.753C3.02385 109.288 3.06086 106.891 3.10979 104.563M16.5806 104.563H3.10979M41 11.9879C39.6667 12.1377 37.3 12.8866 38.5 14.6842C39.7 16.4818 42.3333 19.9271 43.5 21.4251H52.5L58.5 15.583C59.1667 14.3846 59.7 11.9879 56.5 11.9879C53.3 11.9879 44.8333 11.9879 41 11.9879Z" stroke="#30425F" stroke-width="5" stroke-linejoin="round"/>
<rect x="52.5" y="28.6155" width="5" height="17.9757" rx="2" fill="#30425F"/>
<rect x="39.5" y="28.6155" width="5" height="17.9757" rx="2" fill="#30425F"/>
</svg>
