<svg width="104" height="117" viewBox="0 0 104 117" fill="none" xmlns="http://www.w3.org/2000/svg">
<path d="M15.9671 10.7654L30.4454 3C31.2122 4.28632 31.921 5.65977 32.5748 7.11111M15.9671 10.7654C10.6418 18.8354 0.690024 49.2272 3.48583 106.235H4.98335M15.9671 10.7654C17.964 12.4403 21.9579 16.3383 21.9579 18.5309C19.9609 31.1687 16.9654 64.0272 20.9594 94.358M20.9594 94.358C18.9624 95.4543 17.1318 102.733 16.4661 106.235H15.4676M20.9594 94.358C21.1258 98.4691 22.3573 106.783 25.9519 107.148H26.9504M76.8755 107.148C78.8725 106.691 82.8666 103.494 82.8666 94.358M76.8755 107.148H26.9504M76.8755 107.148V114H26.9504V107.148M82.8666 94.358C84.5307 97.4033 87.8591 104.042 87.8591 106.235H88.8576M82.8666 94.358C86.0618 65.1235 83.8651 31.6255 82.3673 18.5309C80.7697 15.6074 85.3628 12.1358 87.8591 10.7654M87.8591 10.7654C102.637 41.0963 102.004 87.0494 99.8411 106.235H98.8426M87.8591 10.7654L73.381 3C72.8176 4.10905 73.9842 5.4809 73.381 7.11111M73.381 7.11111C68.1038 21.3718 55.0054 57 58.5 107.148H44.5C44.5 83.4136 44.1812 32.8725 32.5748 7.11111M73.381 7.11111H32.5748M4.98335 106.235V114H15.4676V106.235M4.98335 106.235H15.4676M88.8576 106.235V114H98.8426V106.235M88.8576 106.235H98.8426" stroke="#30425F" stroke-width="5" stroke-linejoin="round"/>
</svg>
