<svg width="57" height="117" viewBox="0 0 57 117" fill="none" xmlns="http://www.w3.org/2000/svg">
<path d="M54 16.0324C54 13.5006 54 11.0584 54 8.72976M54 16.0324H43.5061M54 16.0324C54 20.3091 54 24.8415 54 29.5142M3.0292 16.0324V9.51619V8.72976M3.0292 16.0324H13.5233M3.0292 16.0324V29.5142M3.0292 8.72976V7.94332V3H54C54 4.81611 54 6.73109 54 8.72976M3.0292 8.72976H54M13.5233 16.0324C14.1895 20.0769 13.0234 28.4356 3.0292 29.5142M13.5233 16.0324H28.5147M3.0292 29.5142V58.2753M43.5061 16.0324C42.8398 20.5263 44.0057 29.5142 54 29.5142M43.5061 16.0324H28.5147M54 29.5142C54 64.3519 54 106.982 54 109.506C54 112.742 50.6686 113.85 49.0029 114C47.0041 114 42.2068 114 39.0087 114C35.8105 114 35.011 111.004 35.011 109.506C34.3447 89.4332 33.0121 48.3887 33.0121 44.7935C33.0121 41.5301 30.2671 40.9821 28.5147 41.1329M28.5147 16.0324V41.1329M28.5147 41.1329C28.3365 41.1482 28.1687 41.1707 28.015 41.1984C25.6163 41.1984 24.3504 43.5951 24.0173 44.7935C23.351 64.8664 22.0184 105.911 22.0184 109.506C22.0184 113.101 19.3533 114 18.0207 114C15.5221 114 9.72537 114 6.5272 114C3.32903 114 2.86263 111.004 3.0292 109.506V65.915M3.0292 58.2753H13.5233M3.0292 58.2753V65.915M3.0292 65.915H9.02584" stroke="#30425F" stroke-width="5" stroke-linejoin="round"/>
</svg>
