<svg width="107" height="117" viewBox="0 0 107 117" fill="none" xmlns="http://www.w3.org/2000/svg">
<path d="M30.5 12.4372C30.8333 9.89069 34 4.43806 44 3H62.5C66.1667 3.1498 74.1 5.24696 76.5 12.4372M30.5 12.4372L42 23.8968M30.5 12.4372H21M76.5 12.4372L65 23.8968L63.4216 25.4696M76.5 12.4372H85.5M63.4216 25.4696L53.5 35.3563L42 23.8968M63.4216 25.4696L71 38.502L85.5 12.4372M85.5 12.4372H104V114H3V12.4372H21M42 23.8968L36.5 38.502L21 12.4372M75 51.5344H91.5V69.9595H75V51.5344Z" stroke="#30425F" stroke-width="5" stroke-linejoin="round"/>
<circle cx="53.5" cy="44.5" r="2.5" fill="#30425F"/>
<circle cx="53.5" cy="58.5" r="2.5" fill="#30425F"/>
<circle cx="53.5" cy="72.5" r="2.5" fill="#30425F"/>
<circle cx="53.5" cy="86.5" r="2.5" fill="#30425F"/>
<circle cx="53.5" cy="100.5" r="2.5" fill="#30425F"/>
</svg>
