<svg width="130" height="117" viewBox="0 0 130 117" fill="none" xmlns="http://www.w3.org/2000/svg">
<path d="M80.5434 8.86585L83.226 11.5732C90.022 13.0171 98.7171 17.5894 102.215 19.6951L125.832 93.2439M80.5434 8.86585L74.731 3H54.2427L48.175 9.9399M80.5434 8.86585C78.7724 12.3252 73.1317 19.0634 64.7366 18.3415M64.7366 18.3415C61.1913 18.6063 52.9155 17.2967 48.175 9.9399M64.7366 18.3415V114M48.175 9.9399L46.747 11.5732C42.083 12.9268 31.6557 16.4463 27.2582 19.6951L4.60549 93.2439M64.7366 114C53.5715 114 42.9145 114 39.7509 114C34.154 114 32.7549 109.488 32.7549 107.232V51.7317L19.3172 97.7561M64.7366 114C73.3242 114 82.2125 114 88.2232 114C90.8883 113.699 96.2186 111.924 96.2186 107.232L96.7183 50.8293L110.175 97.7561M4.60549 93.2439L3.77165 95.9512C2.93879 97.9065 2.07262 101.998 5.27079 102.72C8.46896 103.441 11.2673 104.224 12.2667 104.524C13.7658 105.276 17.0639 105.698 18.2632 101.366L19.3172 97.7561M4.60549 93.2439L19.3172 97.7561M125.832 93.2439L126.701 95.9512C127.9 99.9219 125.202 102.118 123.703 102.72L116.207 104.524C113.009 104.524 111.543 102.419 111.21 101.366L110.175 97.7561M125.832 93.2439L110.175 97.7561M73.2318 31.4268C77.2295 31.126 84.9251 32.6 83.7257 40.9024C83.3926 37.4431 85.025 30.7049 94.2197 31.4268" stroke="#30425F" stroke-width="5" stroke-linejoin="round"/>
</svg>
