<svg width="129" height="117" viewBox="0 0 129 117" fill="none" xmlns="http://www.w3.org/2000/svg">
<path d="M45.5 12.8834L52.5 27.7085L60 24.1146M60 24.1146L65 31.3025L69.5 24.1146M60 24.1146L52.5 7.49243M69.5 24.1146L77.5 27.7085L84 12.8834L77.5 7.49243L69.5 24.1146Z" stroke="#30425F" stroke-width="4" stroke-linejoin="round"/>
<path d="M102 21.9043C100 22.5033 96 26.4866 96 37.6279C96 48.7693 96 93.1848 96 114H32.5V51.1054V37.6279C32.1667 33.435 30.6 24.4201 27 21.9043" stroke="#30425F" stroke-width="5" stroke-linejoin="round"/>
<path d="M33 50.6561L17.5 58.7426L3 48.8592L25 24.1506C27.8333 20.8561 35.9 13.9976 45.5 12.9194L53 5.28219C53.6667 4.53344 55.8 3.03595 59 3.03595C62.2 3.03595 68 3.03595 70.5 3.03595C71.6667 2.8862 74.5 3.1258 76.5 5.28219C78.5 7.43857 80.6667 9.47518 81.5 10.2239C82.6667 11.5717 86.3 14.357 91.5 14.7164C98 15.1656 106 25.9476 106 25.9476L126 48.8592L111 58.7426L97 52.4532" stroke="#30425F" stroke-width="5" stroke-linejoin="round"/>
<ellipse cx="65" cy="47.0262" rx="2" ry="1.79699" fill="#30425F"/>
<ellipse cx="65" cy="39.8382" rx="2" ry="1.79699" fill="#30425F"/>
</svg>
