<svg width="78" height="117" viewBox="0 0 78 117" fill="none" xmlns="http://www.w3.org/2000/svg">
<path d="M3.02294 107.734V47.3105C3.02294 43.0137 4.68961 41.0444 5.52295 40.5968C9.12295 40.5968 10.6896 37.0161 11.0229 35.2258V3H19.5229C20.3229 25.5581 33.1896 30.8992 39.5229 30.75C54.3229 30.75 58.0229 12.25 58.0229 3H67.0229V35.2258C67.0229 39.1645 70.6896 40.4476 72.5229 40.5968C75.323 41.3129 75.3563 45.371 75.0229 47.3105V109.077C75.0229 112.657 71.0229 113.851 69.0229 114H7.52294C3.52294 114 2.85627 109.823 3.02294 107.734Z" stroke="#30425F" stroke-width="5" stroke-linejoin="round"/>
<rect x="47.0229" y="49.9958" width="14" height="4.47581" rx="1.5" fill="#30425F"/>
</svg>
